<svg enable-background="new 0 0 149.2 149.2" viewBox="0 0 149.2 149.2" xmlns="http://www.w3.org/2000/svg"><g enable-background="new"><path clip-rule="evenodd" d="m74.6 12.2c34.5 0 62.4 27.9 62.4 62.4 0 34.5-27.9 62.4-62.4 62.4-34.5 0-62.4-27.9-62.4-62.4 0-34.5 27.9-62.4 62.4-62.4z" fill="#e30333" fill-rule="evenodd"/><path d="m74.6 12.2c34.5 0 62.4 27.9 62.4 62.4 0 34.5-27.9 62.4-62.4 62.4-34.5 0-62.4-27.9-62.4-62.4 0-34.5 27.9-62.4 62.4-62.4z" fill="none"/></g><path clip-rule="evenodd" d="m72.6 30.4c-9.6 0-16.6 3.1-21.7 7.5l11.2 4.5 3.5 7.2 2.6 1-2.2 1.9 6.6 4.3-9.2-1.9v-5.3l-4.8-1.9-11.9-5.3c-7.9 10-9.1 22.6-9.1 22.6l.4 36.5 6.6-1.4-7 4.8.4 8.6 10.9 5.3 62.1-66.7s-6.5-21.7-38.4-21.7z" fill="#050505" fill-rule="evenodd"/><path clip-rule="evenodd" d="m83.1 35.7c-9.1 0-15.9 2.8-20.9 6.9l3.4 7 2.6 1-2.2 1.9 6.6 4.3-9.2-1.9v-5.3l-4.8-1.9-1-.5c-8.3 10.1-9.5 23.1-9.5 23.1l.4 36.5 6.6-1.4-7 4.8.4 8.6 63.9-8.6v-47.6c.1 0 2.6-26.9-29.3-26.9z" fill="#fff" fill-rule="evenodd"/><path d="m83.1 35.7c-9.1 0-15.9 2.8-20.9 6.9l3.4 7 2.6 1-2.2 1.9 6.6 4.3-9.2-1.9v-5.3l-4.8-1.9-1-.5c-8.3 10.1-9.5 23.1-9.5 23.1l.4 36.5 6.6-1.4-7 4.8.4 8.6 63.9-8.6v-47.6c.1 0 2.6-26.9-29.3-26.9z" fill="none"/><g clip-rule="evenodd" fill-rule="evenodd"><path d="m91.1 78.7c.6-1.4 2.8-3.6 3.7-4.8s.3-3.6 0-4.4-1.6-.5-1.5.9-.3 1.2-1.5 2.8c-1.1 1.6-1.9 1.3-1.9 1.3s3.6-4.9 4.1-6.7-2-2.3-2.6-2.3-.3 1.8-.4 2.3c0 .5-3.1 4.3-3.7 3.4s1.9-6.4 2.6-9.2 2.2-4.8.7-5.6-3.1 2.6-3.3 4.1-2.9 8.2-3.3 9.6c-2.8-2.2-3.2-7.1-3.3-9.6-.2-2.5-.5-3.6-1.5-3.5-.9.1-1.3 2.2-1.1 4.2s0 4.8.4 5.9c.3 1.1.2 4.2 0 5.6s-3.3 4.6-5.2 5c-1.8.4-1.9-2-3.7-3.3s-3.1-1.1-4.4-.3c-1.3.9-1 2 0 2.2 1 .3 1.3.5 3 1.2s2.2 3.5 3 4.9c.7 1.3 4.1 2.8 5.2 4.6 1 1.8.8 14.5.4 20.7-.5 6.2-16.1 9.8-16.1 9.8s25.4-4.7 33.1-5.5c-3.8.4-4.5-3.5-4.7-5.6-.3-2.2-2.1-13.4-2.2-15.7s1.5-4.6 2.6-6.9c.9-2.8 1-3.7 1.6-5.1z" fill="#050505"/><path d="m60.6 117.1c32.6-3.2 32.2-3.1 40.1-5.4-3.7 1.1-9.4-2.5-9.7-4.7s-2.1-13.4-2.2-15.7c-.1-2.2 1.5-4.6 2.6-6.9s1.2-3.3 1.9-4.6c.6-1.4 2.8-3.6 3.7-4.8s.3-3.6 0-4.4-1.6-.5-1.5.9-.3 1.2-1.5 2.8c-1.1 1.6-1.9 1.3-1.9 1.3s3.6-4.9 4.1-6.7-2-2.3-2.6-2.3-.3 1.8-.4 2.3c0 .5-3.1 4.3-3.7 3.4s1.9-6.4 2.6-9.2 2.2-4.8.7-5.6-3.1 2.6-3.3 4.1-2.9 8.2-3.3 9.6c-2.8-2.2-3.2-7.1-3.3-9.6-.2-2.5-.5-3.6-1.5-3.5-.9.1-1.3 2.2-1.1 4.2s0 4.8.4 5.9c.3 1.1.2 4.2 0 5.6s-3.3 4.6-5.2 5c-1.8.4-1.9-2-3.7-3.3s-3.1-1.1-4.4-.3c-1.3.9-1 2 0 2.2 1 .3 1.3.5 3 1.2s2.2 3.5 3 4.9c.7 1.3 4.1 2.8 5.2 4.6 1 1.8.8 14.5.4 20.7-.7 5.8-18.4 8.3-18.4 8.3z" fill="#e30333"/></g></svg>