<svg enable-background="new 0 0 149.2 149.2" viewBox="0 0 149.2 149.2" xmlns="http://www.w3.org/2000/svg"><g enable-background="new"><path clip-rule="evenodd" d="m74.6 12.2c34.5 0 62.4 27.9 62.4 62.4s-27.9 62.4-62.4 62.4-62.4-27.9-62.4-62.4 27.9-62.4 62.4-62.4z" fill="#e30333" fill-rule="evenodd"/><path d="m12.2 12.2h124.8v124.8h-124.8z" fill="none"/></g><path clip-rule="evenodd" d="m103.4 72.4c0-16.4-14.8-29.8-33.1-29.8s-33.1 13.3-33.1 29.8c0 12.5 8.5 23.1 20.6 27.6v12.2h10.6v-10.1h.5l.3 10.2 10.6-.3-.3-11.1c.1 0 .3-.1.4-.1l.6 11.1 10.5-.5-.9-15.2c.1-.1.2-.1.2-.2l1.1 15.9 10.6-.7-1.8-26c2-3.9 3.2-8.2 3.2-12.8zm-33.6-5.3c-1.5 2.4-6.7 7.2-11.5 4.3-4.1-2.5-1.5-8.9-.5-11 1.1-2.1 4.4-6.6 8.2-5.3 6.9 2.4 5.3 9.6 3.8 12zm12 14.9c-.9 1.2-2.2 2.1-4.8 1.9-2.6-.1-3.4-.1-4.8-1.9-.5-.7 1.9-11 4.3-11 2.4-.1 6.2 9.8 5.3 11zm10.1-11.6c-4.8 2.9-10.1-1.9-11.5-4.3-1.5-2.4-3.1-9.6 3.8-12 3.8-1.3 7.1 3.1 8.2 5.3 1 2.1 3.6 8.6-.5 11z" fill="#050505" fill-rule="evenodd"/><path d="m103.4 72.4c0-16.4-14.8-29.8-33.1-29.8s-33.1 13.3-33.1 29.8c0 12.5 8.5 23.1 20.6 27.6v12.2h10.6v-10.1h.5l.3 10.2 10.6-.3-.3-11.1c.1 0 .3-.1.4-.1l.6 11.1 10.5-.5-.9-15.2c.1-.1.2-.1.2-.2l1.1 15.9 10.6-.7-1.8-26c2-3.9 3.2-8.2 3.2-12.8zm-33.6-5.3c-1.5 2.4-6.7 7.2-11.5 4.3-4.1-2.5-1.5-8.9-.5-11 1.1-2.1 4.4-6.6 8.2-5.3 6.9 2.4 5.3 9.6 3.8 12zm12 14.9c-.9 1.2-2.2 2.1-4.8 1.9-2.6-.1-3.4-.1-4.8-1.9-.5-.7 1.9-11 4.3-11 2.4-.1 6.2 9.8 5.3 11zm10.1-11.6c-4.8 2.9-10.1-1.9-11.5-4.3-1.5-2.4-3.1-9.6 3.8-12 3.8-1.3 7.1 3.1 8.2 5.3 1 2.1 3.6 8.6-.5 11z" fill="none"/><path clip-rule="evenodd" d="m106.8 65.4c0-15.8-14.8-28.6-33.1-28.6s-33.2 12.8-33.2 28.6c0 11.2 7.4 20.8 18.2 25.5v20.3h10.6v-17.5h.3l.5 17.6 10.6-.3-.5-17.7h.2l.9 17.6 10.5-.5-1.1-20.6c.1 0 .1-.1.2-.1l1.5 21.2 10.5-.7-2-28.7c3.7-4.5 5.9-10.1 5.9-16.1zm-35.1 3.6c-1.5 2.4-6.7 7.2-11.5 4.3-4.1-2.5-1.5-8.9-.5-11 1.1-2.1 4.4-6.6 8.2-5.3 6.9 2.4 5.3 9.6 3.8 12zm12 14.9c-.9 1.2-2.2 2.1-4.8 1.9-2.6-.1-3.4-.1-4.8-1.9-.5-.7 1.9-11 4.3-11 2.5-.1 6.2 9.8 5.3 11zm10.1-11.5c-4.8 2.9-10.1-1.9-11.5-4.3-1.5-2.4-3.1-9.6 3.8-12 3.7-1.3 7.1 3.1 8.2 5.3 1.1 2.1 3.6 8.5-.5 11z" fill="#fff" fill-rule="evenodd"/><path d="m106.8 65.4c0-15.8-14.8-28.6-33.1-28.6s-33.2 12.8-33.2 28.6c0 11.2 7.4 20.8 18.2 25.5v20.3h10.6v-17.5h.3l.5 17.6 10.6-.3-.5-17.7h.2l.9 17.6 10.5-.5-1.1-20.6c.1 0 .1-.1.2-.1l1.5 21.2 10.5-.7-2-28.7c3.7-4.5 5.9-10.1 5.9-16.1zm-35.1 3.6c-1.5 2.4-6.7 7.2-11.5 4.3-4.1-2.5-1.5-8.9-.5-11 1.1-2.1 4.4-6.6 8.2-5.3 6.9 2.4 5.3 9.6 3.8 12zm12 14.9c-.9 1.2-2.2 2.1-4.8 1.9-2.6-.1-3.4-.1-4.8-1.9-.5-.7 1.9-11 4.3-11 2.5-.1 6.2 9.8 5.3 11zm10.1-11.5c-4.8 2.9-10.1-1.9-11.5-4.3-1.5-2.4-3.1-9.6 3.8-12 3.7-1.3 7.1 3.1 8.2 5.3 1.1 2.1 3.6 8.5-.5 11z" fill="none"/></svg>