<svg enable-background="new 0 0 149.2 149.2" viewBox="0 0 149.2 149.2" xmlns="http://www.w3.org/2000/svg"><g clip-rule="evenodd" fill-rule="evenodd"><path d="m74.6 12.2c34.5 0 62.4 27.9 62.4 62.4s-27.9 62.4-62.4 62.4-62.4-27.9-62.4-62.4 27.9-62.4 62.4-62.4z" fill="#03e367"/><path d="m112.8 88.2c-.4-.4-1-1-1.3-1.4.2-.5.4-1 .5-1.6.3-.8.5-1.6.7-2.5l.1-.2c.2-.5.4-1 .5-1.6l.2-.9c.2-.9.3-1.8.4-2.8.1-.7.2-1.5.3-2.1l.2-.7v-.1c.1-1.1 0-2.3-.3-3.4-.2-.6-.3-1.3-.5-1.9v-.1l-.6-2.6c-.1-.5-.3-1.1-.4-1.6-.1-.4-.2-.7-.3-1.1 0-.2-.1-.5-.1-.8-.1-.3-.2-.6-.3-1 0-.1-.1-.3-.1-.3v-.2l-.1-.3c-.2-.8-.4-1.6-.7-2.4-.2-.7-.5-1.4-.8-2.1-.4-1-.8-1.9-1.3-2.9h-.2l-.1-.2c-.2-.3-.3-.5-.4-.6l-.1-.2-.1-.2c-.2-.4-.5-.8-.8-1.2s-.6-.8-.9-1.2c-.3-.3-.6-.7-.8-1.1l-2.1-2.6-1.1.8c-.1-1.5-.6-2.9-1.6-4-.9-1.1-2-1.9-3.3-2.3-.1-1.4-.6-2.6-1.5-3.7-1.2-1.5-2.9-2.4-4.7-2.6-.3 0-.5 0-.8 0-.2-.4-.4-.7-.7-1.1-1.2-1.5-2.9-2.4-4.7-2.6-.3 0-.5 0-.8 0-.9 0-1.8.2-2.5.5l.6-2.4-4.2.6c-.9.1-1.9.2-2.9.3h-.1l-2.7.4h-.2c-.4.1-.8.2-1.3.2-.6.1-1.2.3-1.8.5-.8.2-1.5.4-2.1.7h-.3c-.9.5-1.8 1-2.7 1.5-.9.6-1.8 1.2-2.6 2-1 1-2.1 1.9-3.3 2.8-1.2 1-2.4 1.9-3.6 2.8l-.1.1c-.2.2-.4.3-.5.3-.3 0-.6 0-.9.1-.2 0-.5.1-.8.2-.5 0-1 .1-1.4.3-.3.1-.7.3-1.1.5-.4.1-.7.3-1.1.4-.3.1-.6.2-.9.3h-.2l-.2.1c-.3.1-.6.2-.8.3s-.3.1-.5.2c-.9.3-1.6.7-2.3 1.3-.5.4-1 .9-1.4 1.5-1.3 1.7-1.8 3.8-1.4 6l.1.4.2.4c.1.2.2.4.3.7.1.4.3.7.4 1l-1.2 1.2c-.5.5-.9 1.2-1.3 1.9v.1.1s-.1.3-.7.9c-.8.8-1.4 1.7-1.9 2.6-.1.2-.3.4-.6.8-1.1 1.1-1.2 2.4-1.2 3.2 0 .2 0 .5-.1.6-.6 1.9-.7 3.8-.3 5.4v.2l-.1 1.2c-.3 1.6.2 3.2 1.5 4.4.1.1.1.2.2.2l.3.3v.5.7.2 1.3c-.1.9-.1 1.7.1 2.6.1.7.4 1.4.6 2.1.2.6.5 1.3 1.1 1.8.1.1.1.1.1.1h-.1c-1.3.2-4.9.7-4.9 4.8 0 1.1.3 2.1.6 2.7l.3 1.5.1.2c.2.5.4.9.6 1.3s.5.9.8 1.3c.3.5.7.9 1.1 1.3l.6.6 1.5 1.5c.7.7 1.4 1.2 2.2 1.7 1.1.8 2.5 1.1 4.1 1.1h.1.6c1 .1 2.1.3 3.1.4.4.1.9.2 1.3.2.2 0 .3.1.4.1.4.2.9.4 1.4.4v3.1c0 2.7 1.6 4.6 3.5 5.6.5 1 1.5 2.1 3 2.8.8.4 1.6.6 2.5.6.5 0 .9-.1 1.3-.2.6.5 1.4.9 2.4 1.2.5.1 1 .2 1.5.2s1-.1 1.4-.2c.9.5 2 .8 3.4.8s2.5-.3 3.4-.7c.9.4 2 .7 3.4.7s2.5-.3 3.4-.8c.4.1.9.2 1.4.2s1-.1 1.5-.2c1-.2 1.8-.7 2.4-1.2.4.1.9.2 1.3.2.8 0 1.7-.2 2.5-.6 1.5-.7 2.5-1.8 3-2.8 1.9-1 3.5-2.9 3.5-5.6 0-.8 0-1.9 0-3 .4 0 .8.1 1.2.1.7.1 1.2.1 1.7.1 1.1 0 2-.1 2.8-.4.7-.2 1.5-.4 2.4-.4 1.5-.1 2.6-.3 3.6-.7 1.1-.4 2-1 2.7-1.6s1.4-1.3 2-2.1l.3-.3.2-.4c.4-.5.7-1.1.8-1.7.3-1 .6-2 .8-3.2.1-.5.2-1 .2-1.5 0-.1 0-.3 0-.4.3-2.4-1.5-4.1-2.9-5.7zm-45-12.4c-.1.2-.2.3-.3.5-.6 1-.9 2-1.1 2.8-.2.7-.3 1.1-.5 1.4-.2 0-.5 0-.8 0-.2 0-.3 0-.5 0h-.5c-.7 0-1.4.1-2.1.2 1.8-1.2 3-3.1 3.3-5.3.2-2-.3-3.9-1.6-5.4-1.2-1.5-3-2.5-4.9-2.7-.3 0-.6 0-.8 0-3.7 0-6.9 2.8-7.3 6.5-.2 2 .3 3.9 1.6 5.4 1.2 1.5 3 2.5 4.9 2.7h.8c.4 0 .8 0 1.1-.1-.4.2-.9.5-1.4.8-1.3.8-2.3.9-3.9.9h-.4c-.5 0-1.1 0-1.7 0-.2-.4-.5-1-.7-1.5-.4-1.1-1-2.4-1.8-3.9-1.1-2-1.1-2-.6-3.4.2-.6.5-1.3.8-2.2 1.1-3.4 3.6-5.6 7.8-6.8.6-.2 1.2-.3 1.8-.3 2.6 0 4.8 1.7 7 3.3l.8.6c.6.5.9.7 1.1.9v.3c0 .6 0 1.4.2 2.6.4 1.7.3 1.8-.3 2.7zm4.5 23s-.3.5-1.4 1h-.1c-.1 0-.2 0-.2-.1s.1-.2.2-.4c.9-1.4 1.8-3.4 2.5-5.2l.7 1.6zm6.5 1c-.1 0-.1 0 0 0-1.1-.5-1.4-.9-1.5-1l-1.6-3.1.7-1.5c.7 1.8 1.6 3.8 2.5 5.2.1.2.2.3.2.4-.1 0-.2 0-.3 0zm21.3-21.2c-.2.3-.3.5-.5.8-.8 1.2-1.3 2.6-1.8 3.7-.1.3-.2.6-.4.8-.2 0-.5-.1-.8-.1-.7-.1-1.6-.2-2.7-.2-1.2-.1-2.6-.9-3.8-1.6-.1 0-.2 0-.3-.1.2 0 .4.1.6.1h.8c3.7 0 6.9-2.8 7.3-6.5.2-2-.3-3.9-1.6-5.4-1.2-1.5-3-2.5-4.9-2.7-.3 0-.5 0-.8 0-3.7 0-6.9 2.8-7.3 6.5-.2 2 .3 3.9 1.6 5.4.4.5.9 1 1.4 1.4-.2 0-.4-.1-.7-.1-.2 0-.3 0-.5 0-.4.1-.8.1-1.1.1-.9 0-1.1 0-2.8-4-.2-.5-.4-1.1-.7-1.6-.3-.8-.3-.8.2-1.8.5-.9 1.1-2.1 1.4-3.8.2-1.3 5.2-2.5 7.9-3.1l.6-.1c.7-.2 1.3-.2 1.8-.2 1.1 0 1.5.3 2.7 1.3.5.4 1 .8 1.6 1.2 1.9 1.3 2.9 3.5 4.1 5.9l.1.3c.5.8-.3 2.1-1.4 3.8z"/><path d="m95.7 43.3c-.5-.1-1 0-1.5.1.2-.4.4-.9.4-1.5.3-2.3-1.4-4.4-3.7-4.7-.9-.1-1.8.1-2.5.5 0-2.2-1.6-4-3.7-4.3-2.3-.3-4.4 1.4-4.7 3.7-.1 1.3.3 2.5 1.2 3.4-.3.5-.4 1-.5 1.6-.3 2.3 1.4 4.4 3.7 4.7h.5c-.1.3-.1.5-.2.8-.3 2.3 1.4 4.4 3.7 4.7 1.6.2 3.1-.6 4-1.8.6.6 1.5 1 2.4 1.1 2.3.3 4.4-1.4 4.7-3.7.2-2.3-1.5-4.4-3.8-4.6zm-4 26.9c-2.5-.3-4.7 1.5-5 4s1.5 4.7 4 5 4.7-1.5 5-4-1.5-4.8-4-5zm-33.3 0c-2.5-.3-4.7 1.5-5 4s1.5 4.7 4 5 4.7-1.5 5-4-1.5-4.8-4-5z" fill="#e30333"/><path d="m108.6 86.4c.2-.7.5-1.4.7-2.1.3-.7.5-1.5.6-2.4 0-.2.1-.4.2-.5.1-.3.2-.7.3-1 .1-.4.1-.7.2-1 .2-.8.3-1.6.3-2.5.1-.9.2-1.7.4-2.5 0-.2.1-.4.1-.5.1-.7 0-1.5-.2-2.2s-.4-1.5-.5-2.2c-.1-.5-.2-.9-.3-1.4-.1-.4-.2-.8-.3-1.2-.1-.5-.2-1-.4-1.4-.1-.5-.3-1-.4-1.4 0-.2 0-.3-.1-.5 0-.2-.1-.4-.2-.7-.2-.5-.3-.9-.3-1.1-.2-.7-.4-1.4-.6-2.1s-.5-1.4-.7-2c-.3-.8-.7-1.7-1.2-2.5-.4-.5-.7-1-.8-1.5-.1-.2-.2-.4-.5-.6-.3-.4-.6-.8-.9-1.2s-.6-.8-.9-1.2c-.1-.1-.2-.2-.3-.3-.7.6-1.5 1.1-2.2 1.5-.8.5-1.6.9-2.4 1.2l-.7.3c-.3.3-.7.5-1.1.6-.4.2-.8.3-1.2.4l-.6.2c-.3.1-.5.3-.6.6l-.6 1c-.1.2-.2.2-.4.2-.2-.1-.4-.1-.6-.1s-.4 0-.6-.1c-.3 0-.5-.1-.8-.1-.2-.1-.5-.1-.7-.1-.1-.1-.3-.1-.4-.1-.2 0-.3 0-.5 0l-1.5.1c-.4.1-.8.1-1.1.1-.4 0-.7-.1-1.1-.1s-.9-.2-1.3-.4-.8-.5-1.2-.8c-.9-.5-1.7-1.4-2.3-2.5-.2-.5-.5-1-1-1.6-.2-.4-.4-.8-.6-1.2-.1-.4-.3-.9-.6-1.3l-.2-.5c-.2-.7-.4-1.4-.5-2.1-.2-.7-.3-1.5-.4-2.2s-.1-1.4-.2-2.1-.1-1.4-.1-2.1c0-1 .1-2 .3-3.1.1-.7.3-1.4.4-2s.2-1.1.3-1.7c-1 .2-2 .3-3.1.3-.9.1-1.8.3-2.6.4-.4.1-.9.2-1.4.3s-1 .2-1.4.4c-.7.2-1.3.4-1.9.6-.8.4-1.7.9-2.5 1.4s-1.5 1.1-2.2 1.6c-1.1 1-2.2 2-3.5 3-1.2 1-2.4 1.9-3.6 2.8-.7.6-1.3.9-2 1-.3 0-.5 0-.8.1-.3 0-.5.1-.9.2-.3 0-.6 0-.9.1s-.5.2-.9.4-.9.3-1.3.5c-.5.2-.9.3-1.3.4-.3.1-.5.2-.7.3s-.4.2-.7.3c-.5.2-.9.4-1.3.8-.4.3-.7.7-1.1 1.1-.8 1.1-1.1 2.4-.9 3.8.2.3.3.7.4 1 .1.4.3.7.6 1 .6.7.6 1.3 0 2.1-.7.7-1.4 1.3-2 2-.3.3-.5.6-.6 1-.2.6-.6 1.3-1.4 2-.6.6-1.1 1.2-1.4 1.9-.3.5-.6 1-1.1 1.5-.6.6-.3 1.5-.6 2.6-.5 1.5-.5 2.9-.2 4.1.1.4.1.8-.1 1.2 0 .3-.1.7-.1 1-.2.7.1 1.4.7 1.9.1.1.2.3.4.4.1.2.2.3.4.4.2.2.4.5.5 1v1.1c0 .4 0 .8-.1 1.2v1.3c-.1.6-.1 1.2 0 1.8s.3 1.2.5 1.7c.1.4.2.6.3.7l.6.6c.1.2.3.4.5.5.3.3.6.7.9 1 .3.4.5.8.7 1.1-3 2.8-6.6.6-6.7 3.7 0 .6.2 1.2.5 1.7.1.5.2 1 .4 1.6.2.4.3.8.5 1.1s.4.7.6 1c.2.4.5.7.8.9.2.2.3.4.5.5.5.5 1 1.1 1.6 1.6s1.2 1 1.8 1.4c.6.5 1.5.7 2.6.7h.5.4c1.1.2 2.2.3 3.4.4.4.1.9.2 1.3.2.5.1.9.2 1.2.3.2.1.4.2.6.2.8.1 1.6.1 2.4.2v5.8c0 2.8 3 3.5 3 3.5s-.1 1.5 1.9 2.4c2 1 3.4-.7 3.4-.7s.4 1.6 2.3 2.1 2.6-.7 2.6-.7.5 1.4 3 1.4c2.6 0 3.4-1.4 3.4-1.4s.8 1.4 3.4 1.4 3-1.4 3-1.4.7 1.2 2.6.7 2.3-2.1 2.3-2.1 1.4 1.7 3.4.7 1.9-2.4 1.9-2.4 3.1-.7 3-3.5c0-1.6 0-4.1 0-6.1h.2c.6 0 1.3 0 1.9.1.7.1 1.4.1 2.1.2 1.6.1 2.7.1 3.3-.2.9-.3 2-.5 3.1-.6 1.2-.1 2.1-.3 2.9-.5.7-.3 1.3-.6 1.7-1 .6-.6 1.3-1.2 1.8-1.9.1-.2.2-.4.4-.6s.2-.4.3-.6c.3-1 .6-2.1.9-3.3.1-.3.1-.5.1-.8 0-.2 0-.5 0-.7.8-2.2-4.7-4.8-3.9-7.2zm-43.9-3.1c-1.8.1-2.7-.1-5.5 1.7s-4.9 1.2-7.6 1.4-2.6-2.9-4.8-6.9c-2.3-4.1-1.4-3.8 0-7.9s4.5-7.1 9.7-8.6 9 1.8 12.1 4.1 1.8 2.4 2.4 5.5-.1 3.6-1 5.2c-1 1.6-.7 3.7-2.4 5.2-1.1.8-1.1.2-2.9.3zm12.8 19c-1.8-.9-2.5-1.8-2.7-2.2-.2.4-.9 1.4-2.7 2.2-2.4 1.1-5.9-1.1-3.8-4.5s4.1-10.4 4.1-10.4c1.1 1 1.8 2.2 2.3 3.3.5-1.1 1.2-2.3 2.3-3.3 0 0 2 6.9 4.1 10.4 2.3 3.4-1.2 5.6-3.6 4.5zm24.5-21.4c-1.3 2.1-2.1 4.8-2.8 5.5s-2.2.2-5.5 0-6.3-3.3-7.6-3.1c-4.7.7-5-1.4-7.6-7.3-1.4-3.3.8-3.9 1.4-7.3.5-3.4 5.8-4.4 10.7-5.5s5.8 1 8.3 2.8 3.8 4.5 5.2 7.3-.8 5.5-2.1 7.6z" fill="#fff"/></g></svg>