<svg enable-background="new 0 0 149.2 149.2" viewBox="0 0 149.2 149.2" xmlns="http://www.w3.org/2000/svg"><g clip-rule="evenodd" fill-rule="evenodd"><path d="m74.6 12.2c34.5 0 62.4 27.9 62.4 62.4s-27.9 62.4-62.4 62.4-62.4-27.9-62.4-62.4 27.9-62.4 62.4-62.4z" fill="#03e367"/><path d="m77.7 122.6-.7-1.3-3.9 1.9-4.9-3.2v-3.9l4.6-3.7v-10.2h2.7l3.4-4.3 3.8 4.8.3 8.1 7.3 5-2.9 5.1-4.4 3.2z"/><path d="m71.6 45.2-4.1-1.3.4-4.2-.8-.8-.6-4.9 1.3-.9.3-5.3 4.6-2.7 4.1 2.7.5 4.9 2 .5-1.3 5.3-.9 1.3.8 5.4z"/><path d="m79.3 104.7-2.9 2.6-.5-.5-1 3-2.1-.7-7.2 4.2.3-15-3-3-.1-.4-4.6-2.3-.6-12.6-1.2-3.2-3.2-1.2.7-2.5-4.3-7.3-.6-.1-2.2-8.3-.5-.3-2.2-7.9 3.2-4.4 5.4 1.1 2.5 3.4.7 2.9.3.5-.6-4.8-.8-2.2-.3-9.8 3-4.2 6.1 1.9 1.7 9.1-.4 1.9 1.4 2.9.4-11.9 3.5 4.5h2.9l.1.2h1.1l4.9-1.1.9 5.2 3.1-6.2 7.9 1.4 4.8 7.9-.1.2.1-.1 5.1 3.1 2.7 4.7 1.4 9.3-2.1 15.5-1.9-1-2 3.9.9.2-4.8 9.2-4 4.3v.7h-.6l-1.2 1.2.2 8-4.6 1.3-1.4 5.4z"/><path d="m102.2 64.7-1.2-8.4-2-3.5-2.5-1.5-2.3 2.5-.3 6.6.5 2.5 3.3 1-3 .3-5.8 3.8-2.3 4.3 1.3-5.3 1.8-.8-.8-2 3-11.7 1-4.6-3.5-5.8-4.6-.8-4.8 9.6.3 2.3 2.5.8 2.3-.8 2.3-3.3 1-2.5v1.8l2 1-1.8.3-2.6 4.8-3 1.8-1.3 4.6 2.5 2.3h-5.6l2-2-1.5-2.3-1-6.6-1.5-1.5 1.5-1.3-1.3-7.6-2.3.5h-1.8l-.5 3.8-1.1-4.1h-.8v1.8l-1-1.3-.3 7.6 1.5.5-1.5.8 2.8 11.6 2.3 1.5-3.5.3-1.8.8.3-2.3-4.3-10.9v-2.5l-2.9-5.9.5-2.3-1.3-6.8-2.5-.8-1.3 1.8.3 8.4.8 2 1 8.6 2 4.6v2.3l1.8 4.1 4.3.3-4.1 1.5-2.5 1.5.3-3-2.8-5.6h-2.5l1.8-1-3.3-5.3h-1.3l.3-1.5-.8-3-1.5-2-2.5-.5-1.3 1.8 1.5 5.6 1.5 1-.5 1.3 1.5 5.6 1.8.3-.5 1.8 3.5 6.1 1 .5-.5 2 2 .8 1.8 4.8.5 11.4 3.5 1.8.5-1.3.5 2.5 2.5 2.5h3l3.5-1-3 2.3-2.8.5-.3 10.1 1.8-1 .3-1.8 2.5.8 1.5-4.3 1.8 1.5 2.8-2.5 2 1.3 1.5 3 .5-2 .5 1.3 1.3-.8 1.8 3-.1-10.2-4.3-1 5.1-1v-1.3l.8 1h.5l.3-3.3 1 2.8 3-3.3 3-5.8-.8-.3 4.3-8.6-.3-1 1.5.8zm-31.4-26.1 2 .3-2 .5-.2 2.5 1.5.5h2.5l-.5-3.3 1.3-1.8.5-2-2.3-.5 1-.3-.5-5.1-1.5-1-1.8 1-.3 5.1-1 .8.3 2.3zm9.6 78.1-.5-12.9-1-1.3-2 2.5h-1.3v11.4l-2-1-2.5 2v1l2.3 1.5 2.5-1.3 2-2 1.8 3.5 2.8.8 2.8-2 1.3-2.3-4.1-2.8z" fill="#fff"/></g></svg>